<svg width="367" height="250" viewBox="0 0 367 250" fill="none" xmlns="http://www.w3.org/2000/svg">
<path d="M114.185 34V15.45H117.545V34H114.185ZM115.865 11.88C115.212 11.88 114.663 11.67 114.22 11.25C113.8 10.83 113.59 10.3167 113.59 9.71C113.59 9.08 113.8 8.555 114.22 8.135C114.663 7.715 115.212 7.505 115.865 7.505C116.518 7.505 117.055 7.715 117.475 8.135C117.918 8.53166 118.14 9.03333 118.14 9.64C118.14 10.27 117.93 10.8067 117.51 11.25C117.09 11.67 116.542 11.88 115.865 11.88ZM121.3 34V9.5H130.855C133.002 9.5 134.834 9.83833 136.35 10.515C137.867 11.1917 139.034 12.1717 139.85 13.455C140.667 14.7383 141.075 16.2667 141.075 18.04C141.075 19.8133 140.667 21.3417 139.85 22.625C139.034 23.885 137.867 24.865 136.35 25.565C134.834 26.2417 133.002 26.58 130.855 26.58H123.225L124.8 24.935V34H121.3ZM124.8 25.285L123.225 23.535H130.75C132.99 23.535 134.682 23.0567 135.825 22.1C136.992 21.1433 137.575 19.79 137.575 18.04C137.575 16.29 136.992 14.9367 135.825 13.98C134.682 13.0233 132.99 12.545 130.75 12.545H123.225L124.8 10.795V25.285ZM152.824 15.275C154.341 15.275 155.671 15.5667 156.814 16.15C157.981 16.7333 158.891 17.62 159.544 18.81C160.198 20 160.524 21.505 160.524 23.325V34H157.164V23.71C157.164 21.9133 156.721 20.56 155.834 19.65C154.971 18.74 153.746 18.285 152.159 18.285C150.969 18.285 149.931 18.5183 149.044 18.985C148.158 19.4517 147.469 20.14 146.979 21.05C146.513 21.96 146.279 23.0917 146.279 24.445V34H142.919V8.03H146.279V20.455L145.614 19.125C146.221 17.9117 147.154 16.9667 148.414 16.29C149.674 15.6133 151.144 15.275 152.824 15.275ZM171.537 34.21C169.671 34.21 168.014 33.8017 166.567 32.985C165.121 32.1683 163.977 31.0483 163.137 29.625C162.297 28.1783 161.877 26.545 161.877 24.725C161.877 22.8817 162.297 21.2483 163.137 19.825C163.977 18.4017 165.121 17.2933 166.567 16.5C168.014 15.6833 169.671 15.275 171.537 15.275C173.381 15.275 175.026 15.6833 176.472 16.5C177.942 17.2933 179.086 18.4017 179.902 19.825C180.742 21.225 181.162 22.8583 181.162 24.725C181.162 26.5683 180.742 28.2017 179.902 29.625C179.086 31.0483 177.942 32.1683 176.472 32.985C175.026 33.8017 173.381 34.21 171.537 34.21ZM171.537 31.27C172.727 31.27 173.789 31.0017 174.722 30.465C175.679 29.9283 176.426 29.17 176.962 28.19C177.499 27.1867 177.767 26.0317 177.767 24.725C177.767 23.395 177.499 22.2517 176.962 21.295C176.426 20.315 175.679 19.5567 174.722 19.02C173.789 18.4833 172.727 18.215 171.537 18.215C170.347 18.215 169.286 18.4833 168.352 19.02C167.419 19.5567 166.672 20.315 166.112 21.295C165.552 22.2517 165.272 23.395 165.272 24.725C165.272 26.0317 165.552 27.1867 166.112 28.19C166.672 29.17 167.419 29.9283 168.352 30.465C169.286 31.0017 170.347 31.27 171.537 31.27ZM192.564 15.275C194.081 15.275 195.411 15.5667 196.554 16.15C197.721 16.7333 198.631 17.62 199.284 18.81C199.938 20 200.264 21.505 200.264 23.325V34H196.904V23.71C196.904 21.9133 196.461 20.56 195.574 19.65C194.711 18.74 193.486 18.285 191.899 18.285C190.709 18.285 189.671 18.5183 188.784 18.985C187.898 19.4517 187.209 20.14 186.719 21.05C186.253 21.96 186.019 23.0917 186.019 24.445V34H182.659V15.45H185.879V20.455L185.354 19.125C185.961 17.9117 186.894 16.9667 188.154 16.29C189.414 15.6133 190.884 15.275 192.564 15.275ZM211.592 34.21C209.609 34.21 207.859 33.8017 206.342 32.985C204.849 32.1683 203.682 31.0483 202.842 29.625C202.026 28.2017 201.617 26.5683 201.617 24.725C201.617 22.8817 202.014 21.2483 202.807 19.825C203.624 18.4017 204.732 17.2933 206.132 16.5C207.556 15.6833 209.154 15.275 210.927 15.275C212.724 15.275 214.311 15.6717 215.687 16.465C217.064 17.2583 218.137 18.3783 218.907 19.825C219.701 21.2483 220.097 22.9167 220.097 24.83C220.097 24.97 220.086 25.1333 220.062 25.32C220.062 25.5067 220.051 25.6817 220.027 25.845H204.242V23.43H218.277L216.912 24.27C216.936 23.08 216.691 22.0183 216.177 21.085C215.664 20.1517 214.952 19.4283 214.042 18.915C213.156 18.3783 212.117 18.11 210.927 18.11C209.761 18.11 208.722 18.3783 207.812 18.915C206.902 19.4283 206.191 20.1633 205.677 21.12C205.164 22.0533 204.907 23.1267 204.907 24.34V24.9C204.907 26.1367 205.187 27.245 205.747 28.225C206.331 29.1817 207.136 29.9283 208.162 30.465C209.189 31.0017 210.367 31.27 211.697 31.27C212.794 31.27 213.786 31.0833 214.672 30.71C215.582 30.3367 216.376 29.7767 217.052 29.03L218.907 31.2C218.067 32.18 217.017 32.9267 215.757 33.44C214.521 33.9533 213.132 34.21 211.592 34.21Z" fill="#0E0E0E"/>
<path d="M287.09 222.275C288.607 222.275 289.937 222.567 291.08 223.15C292.247 223.733 293.157 224.62 293.81 225.81C294.463 227 294.79 228.505 294.79 230.325V241H291.43V230.71C291.43 228.913 290.987 227.56 290.1 226.65C289.237 225.74 288.012 225.285 286.425 225.285C285.235 225.285 284.197 225.518 283.31 225.985C282.423 226.452 281.735 227.14 281.245 228.05C280.778 228.96 280.545 230.092 280.545 231.445V241H277.185V222.45H280.405V227.455L279.88 226.125C280.487 224.912 281.42 223.967 282.68 223.29C283.94 222.613 285.41 222.275 287.09 222.275ZM305.803 241.21C303.937 241.21 302.28 240.802 300.833 239.985C299.387 239.168 298.243 238.048 297.403 236.625C296.563 235.178 296.143 233.545 296.143 231.725C296.143 229.882 296.563 228.248 297.403 226.825C298.243 225.402 299.387 224.293 300.833 223.5C302.28 222.683 303.937 222.275 305.803 222.275C307.647 222.275 309.292 222.683 310.738 223.5C312.208 224.293 313.352 225.402 314.168 226.825C315.008 228.225 315.428 229.858 315.428 231.725C315.428 233.568 315.008 235.202 314.168 236.625C313.352 238.048 312.208 239.168 310.738 239.985C309.292 240.802 307.647 241.21 305.803 241.21ZM305.803 238.27C306.993 238.27 308.055 238.002 308.988 237.465C309.945 236.928 310.692 236.17 311.228 235.19C311.765 234.187 312.033 233.032 312.033 231.725C312.033 230.395 311.765 229.252 311.228 228.295C310.692 227.315 309.945 226.557 308.988 226.02C308.055 225.483 306.993 225.215 305.803 225.215C304.613 225.215 303.552 225.483 302.618 226.02C301.685 226.557 300.938 227.315 300.378 228.295C299.818 229.252 299.538 230.395 299.538 231.725C299.538 233.032 299.818 234.187 300.378 235.19C300.938 236.17 301.685 236.928 302.618 237.465C303.552 238.002 304.613 238.27 305.803 238.27Z" fill="#0E0E0E"/>
<path d="M333.009 241.21C331.469 241.21 330.058 240.86 328.774 240.16C327.514 239.437 326.499 238.375 325.729 236.975C324.983 235.575 324.609 233.825 324.609 231.725C324.609 229.625 324.971 227.875 325.694 226.475C326.441 225.075 327.444 224.025 328.704 223.325C329.988 222.625 331.423 222.275 333.009 222.275C334.829 222.275 336.439 222.672 337.839 223.465C339.239 224.258 340.348 225.367 341.164 226.79C341.981 228.19 342.389 229.835 342.389 231.725C342.389 233.615 341.981 235.272 341.164 236.695C340.348 238.118 339.239 239.227 337.839 240.02C336.439 240.813 334.829 241.21 333.009 241.21ZM323.174 247.79V222.45H326.394V227.455L326.184 231.76L326.534 236.065V247.79H323.174ZM332.729 238.27C333.919 238.27 334.981 238.002 335.914 237.465C336.871 236.928 337.618 236.17 338.154 235.19C338.714 234.187 338.994 233.032 338.994 231.725C338.994 230.395 338.714 229.252 338.154 228.295C337.618 227.315 336.871 226.557 335.914 226.02C334.981 225.483 333.919 225.215 332.729 225.215C331.563 225.215 330.501 225.483 329.544 226.02C328.611 226.557 327.864 227.315 327.304 228.295C326.768 229.252 326.499 230.395 326.499 231.725C326.499 233.032 326.768 234.187 327.304 235.19C327.864 236.17 328.611 236.928 329.544 237.465C330.501 238.002 331.563 238.27 332.729 238.27ZM343.882 241V222.45H347.242V241H343.882ZM345.562 218.88C344.909 218.88 344.36 218.67 343.917 218.25C343.497 217.83 343.287 217.317 343.287 216.71C343.287 216.08 343.497 215.555 343.917 215.135C344.36 214.715 344.909 214.505 345.562 214.505C346.215 214.505 346.752 214.715 347.172 215.135C347.615 215.532 347.837 216.033 347.837 216.64C347.837 217.27 347.627 217.807 347.207 218.25C346.787 218.67 346.239 218.88 345.562 218.88ZM347.812 241L355.792 230.64L355.757 232.355L348.162 222.45H351.907L357.717 230.08H356.282L362.092 222.45H365.767L358.067 232.425L358.102 230.64L366.152 241H362.337L356.212 232.88L357.577 233.09L351.557 241H347.812Z" fill="#DAB224"/>
<path d="M10.29 111V66.2L15.19 71.1H0.49V62H21.63V111H10.29ZM40.5021 111.84C37.0954 111.84 33.7121 111.397 30.3521 110.51C27.0388 109.577 24.1921 108.27 21.8121 106.59L26.2921 97.91C28.1588 99.2633 30.3054 100.337 32.7321 101.13C35.2054 101.923 37.7021 102.32 40.2221 102.32C43.0688 102.32 45.3088 101.76 46.9421 100.64C48.5754 99.52 49.3921 97.9567 49.3921 95.95C49.3921 94.69 49.0654 93.57 48.4121 92.59C47.7588 91.61 46.5921 90.8633 44.9121 90.35C43.2788 89.8367 40.9688 89.58 37.9821 89.58H25.4521L27.9721 62H57.8621V71.1H32.0321L37.9121 65.92L36.1621 85.59L30.2821 80.41H40.6421C45.4954 80.41 49.3921 81.0867 52.3321 82.44C55.3188 83.7467 57.4888 85.5433 58.8421 87.83C60.1954 90.1167 60.8721 92.7067 60.8721 95.6C60.8721 98.4933 60.1488 101.177 58.7021 103.65C57.2554 106.077 55.0154 108.06 51.9821 109.6C48.9954 111.093 45.1688 111.84 40.5021 111.84ZM75.7772 111V62H96.9872C101.374 62 105.154 62.7233 108.327 64.17C111.501 65.57 113.951 67.6 115.677 70.26C117.404 72.92 118.267 76.0933 118.267 79.78C118.267 83.42 117.404 86.57 115.677 89.23C113.951 91.89 111.501 93.9433 108.327 95.39C105.154 96.79 101.374 97.49 96.9872 97.49H82.0772L87.1172 92.38V111H75.7772ZM87.1172 93.64L82.0772 88.25H96.3572C99.8572 88.25 102.471 87.5033 104.197 86.01C105.924 84.5167 106.787 82.44 106.787 79.78C106.787 77.0733 105.924 74.9733 104.197 73.48C102.471 71.9867 99.8572 71.24 96.3572 71.24H82.0772L87.1172 65.85V93.64ZM119.225 111V73.34H129.655V83.98L128.185 80.9C129.305 78.24 131.101 76.2333 133.575 74.88C136.048 73.48 139.058 72.78 142.605 72.78V82.86C142.138 82.8133 141.718 82.79 141.345 82.79C140.971 82.7433 140.575 82.72 140.155 82.72C137.168 82.72 134.741 83.5833 132.875 85.31C131.055 86.99 130.145 89.6267 130.145 93.22V111H119.225ZM160.444 111.56C156.431 111.56 152.861 110.72 149.734 109.04C146.654 107.36 144.204 105.073 142.384 102.18C140.611 99.24 139.724 95.9033 139.724 92.17C139.724 88.39 140.611 85.0533 142.384 82.16C144.204 79.22 146.654 76.9333 149.734 75.3C152.861 73.62 156.431 72.78 160.444 72.78C164.411 72.78 167.958 73.62 171.084 75.3C174.211 76.9333 176.661 79.1967 178.434 82.09C180.208 84.9833 181.094 88.3433 181.094 92.17C181.094 95.9033 180.208 99.24 178.434 102.18C176.661 105.073 174.211 107.36 171.084 109.04C167.958 110.72 164.411 111.56 160.444 111.56ZM160.444 102.6C162.264 102.6 163.898 102.18 165.344 101.34C166.791 100.5 167.934 99.31 168.774 97.77C169.614 96.1833 170.034 94.3167 170.034 92.17C170.034 89.9767 169.614 88.11 168.774 86.57C167.934 85.03 166.791 83.84 165.344 83C163.898 82.16 162.264 81.74 160.444 81.74C158.624 81.74 156.991 82.16 155.544 83C154.098 83.84 152.931 85.03 152.044 86.57C151.204 88.11 150.784 89.9767 150.784 92.17C150.784 94.3167 151.204 96.1833 152.044 97.77C152.931 99.31 154.098 100.5 155.544 101.34C156.991 102.18 158.624 102.6 160.444 102.6ZM196.388 111V62H205.768L226.628 96.58H221.658L242.168 62H251.478L251.618 111H240.978L240.908 78.31H242.868L226.488 105.82H221.378L204.648 78.31H207.028V111H196.388ZM279.273 111V103.65L278.573 102.04V88.88C278.573 86.5467 277.85 84.7267 276.403 83.42C275.003 82.1133 272.833 81.46 269.893 81.46C267.887 81.46 265.903 81.7867 263.943 82.44C262.03 83.0467 260.397 83.8867 259.043 84.96L255.123 77.33C257.177 75.8833 259.65 74.7633 262.543 73.97C265.437 73.1767 268.377 72.78 271.363 72.78C277.103 72.78 281.56 74.1333 284.733 76.84C287.907 79.5467 289.493 83.77 289.493 89.51V111H279.273ZM267.793 111.56C264.853 111.56 262.333 111.07 260.233 110.09C258.133 109.063 256.523 107.687 255.403 105.96C254.283 104.233 253.723 102.297 253.723 100.15C253.723 97.91 254.26 95.95 255.333 94.27C256.453 92.59 258.203 91.2833 260.583 90.35C262.963 89.37 266.067 88.88 269.893 88.88H279.903V95.25H271.083C268.517 95.25 266.743 95.67 265.763 96.51C264.83 97.35 264.363 98.4 264.363 99.66C264.363 101.06 264.9 102.18 265.973 103.02C267.093 103.813 268.61 104.21 270.523 104.21C272.343 104.21 273.977 103.79 275.423 102.95C276.87 102.063 277.92 100.78 278.573 99.1L280.253 104.14C279.46 106.567 278.013 108.41 275.913 109.67C273.813 110.93 271.107 111.56 267.793 111.56ZM288.316 111L305.186 88.88L304.976 94.9L288.806 73.34H301.056L311.276 87.41L306.656 87.55L317.226 73.34H328.846L312.606 94.69V88.81L329.406 111H317.016L306.306 96.02L310.856 96.65L300.216 111H288.316Z" fill="#0E0E0E"/>
<path d="M168.13 174.21C166.263 174.21 164.607 173.802 163.16 172.985C161.713 172.168 160.57 171.048 159.73 169.625C158.89 168.178 158.47 166.545 158.47 164.725C158.47 162.882 158.89 161.248 159.73 159.825C160.57 158.402 161.713 157.293 163.16 156.5C164.607 155.683 166.263 155.275 168.13 155.275C169.973 155.275 171.618 155.683 173.065 156.5C174.535 157.293 175.678 158.402 176.495 159.825C177.335 161.225 177.755 162.858 177.755 164.725C177.755 166.568 177.335 168.202 176.495 169.625C175.678 171.048 174.535 172.168 173.065 172.985C171.618 173.802 169.973 174.21 168.13 174.21ZM168.13 171.27C169.32 171.27 170.382 171.002 171.315 170.465C172.272 169.928 173.018 169.17 173.555 168.19C174.092 167.187 174.36 166.032 174.36 164.725C174.36 163.395 174.092 162.252 173.555 161.295C173.018 160.315 172.272 159.557 171.315 159.02C170.382 158.483 169.32 158.215 168.13 158.215C166.94 158.215 165.878 158.483 164.945 159.02C164.012 159.557 163.265 160.315 162.705 161.295C162.145 162.252 161.865 163.395 161.865 164.725C161.865 166.032 162.145 167.187 162.705 168.19C163.265 169.17 164.012 169.928 164.945 170.465C165.878 171.002 166.94 171.27 168.13 171.27ZM187.057 174.21C185.47 174.21 184.07 173.918 182.857 173.335C181.667 172.752 180.733 171.865 180.057 170.675C179.403 169.462 179.077 167.945 179.077 166.125V155.45H182.437V165.74C182.437 167.56 182.868 168.925 183.732 169.835C184.618 170.745 185.855 171.2 187.442 171.2C188.608 171.2 189.623 170.967 190.487 170.5C191.35 170.01 192.015 169.31 192.482 168.4C192.948 167.467 193.182 166.347 193.182 165.04V155.45H196.542V174H193.357V168.995L193.882 170.325C193.275 171.562 192.365 172.518 191.152 173.195C189.938 173.872 188.573 174.21 187.057 174.21Z" fill="#0E0E0E"/>
<path d="M87.8542 233.84C83.7476 233.84 80.1542 233.233 77.0742 232.02C73.9942 230.76 71.5909 229.01 69.8642 226.77C68.1376 224.483 67.2742 221.823 67.2742 218.79C67.2742 215.757 68.1142 213.19 69.7942 211.09C71.5209 208.943 73.9242 207.333 77.0042 206.26C80.0842 205.14 83.7009 204.58 87.8542 204.58C92.0542 204.58 95.6942 205.14 98.7742 206.26C101.901 207.333 104.304 208.943 105.984 211.09C107.711 213.19 108.574 215.757 108.574 218.79C108.574 221.823 107.711 224.483 105.984 226.77C104.258 229.01 101.831 230.76 98.7042 232.02C95.6242 233.233 92.0076 233.84 87.8542 233.84ZM87.8542 225.51C90.7009 225.51 92.9409 224.88 94.5742 223.62C96.2542 222.36 97.0942 220.633 97.0942 218.44C97.0942 216.247 96.2542 214.543 94.5742 213.33C92.9409 212.07 90.7009 211.44 87.8542 211.44C85.0542 211.44 82.8376 212.07 81.2042 213.33C79.5709 214.543 78.7542 216.247 78.7542 218.44C78.7542 220.633 79.5709 222.36 81.2042 223.62C82.8376 224.88 85.0542 225.51 87.8542 225.51ZM87.8542 210.32C84.0742 210.32 80.7609 209.807 77.9142 208.78C75.1142 207.753 72.9209 206.26 71.3342 204.3C69.7942 202.293 69.0242 199.913 69.0242 197.16C69.0242 194.267 69.8176 191.793 71.4042 189.74C72.9909 187.64 75.2076 186.03 78.0542 184.91C80.9009 183.743 84.1676 183.16 87.8542 183.16C91.6342 183.16 94.9242 183.743 97.7242 184.91C100.571 186.03 102.788 187.64 104.374 189.74C106.008 191.793 106.824 194.267 106.824 197.16C106.824 199.913 106.031 202.293 104.444 204.3C102.904 206.26 100.711 207.753 97.8642 208.78C95.0176 209.807 91.6809 210.32 87.8542 210.32ZM87.8542 203.67C90.2342 203.67 92.1009 203.133 93.4542 202.06C94.8542 200.987 95.5542 199.517 95.5542 197.65C95.5542 195.69 94.8309 194.173 93.3842 193.1C91.9842 192.027 90.1409 191.49 87.8542 191.49C85.6142 191.49 83.7942 192.027 82.3942 193.1C80.9942 194.173 80.2942 195.69 80.2942 197.65C80.2942 199.517 80.9709 200.987 82.3242 202.06C83.6776 203.133 85.5209 203.67 87.8542 203.67ZM120.889 233.56C119.022 233.56 117.412 232.93 116.059 231.67C114.752 230.363 114.099 228.707 114.099 226.7C114.099 224.693 114.752 223.083 116.059 221.87C117.412 220.61 119.022 219.98 120.889 219.98C122.802 219.98 124.412 220.61 125.719 221.87C127.025 223.083 127.679 224.693 127.679 226.7C127.679 228.707 127.025 230.363 125.719 231.67C124.412 232.93 122.802 233.56 120.889 233.56ZM152.88 233.84C148.867 233.84 145.274 232.86 142.1 230.9C138.927 228.893 136.43 226 134.61 222.22C132.79 218.44 131.88 213.867 131.88 208.5C131.88 203.133 132.79 198.56 134.61 194.78C136.43 191 138.927 188.13 142.1 186.17C145.274 184.163 148.867 183.16 152.88 183.16C156.94 183.16 160.534 184.163 163.66 186.17C166.834 188.13 169.33 191 171.15 194.78C172.97 198.56 173.88 203.133 173.88 208.5C173.88 213.867 172.97 218.44 171.15 222.22C169.33 226 166.834 228.893 163.66 230.9C160.534 232.86 156.94 233.84 152.88 233.84ZM152.88 224.25C154.794 224.25 156.45 223.713 157.85 222.64C159.297 221.567 160.417 219.863 161.21 217.53C162.05 215.197 162.47 212.187 162.47 208.5C162.47 204.813 162.05 201.803 161.21 199.47C160.417 197.137 159.297 195.433 157.85 194.36C156.45 193.287 154.794 192.75 152.88 192.75C151.014 192.75 149.357 193.287 147.91 194.36C146.51 195.433 145.39 197.137 144.55 199.47C143.757 201.803 143.36 204.813 143.36 208.5C143.36 212.187 143.757 215.197 144.55 217.53C145.39 219.863 146.51 221.567 147.91 222.64C149.357 223.713 151.014 224.25 152.88 224.25ZM200.39 233.84C196.377 233.84 192.783 232.86 189.61 230.9C186.437 228.893 183.94 226 182.12 222.22C180.3 218.44 179.39 213.867 179.39 208.5C179.39 203.133 180.3 198.56 182.12 194.78C183.94 191 186.437 188.13 189.61 186.17C192.783 184.163 196.377 183.16 200.39 183.16C204.45 183.16 208.043 184.163 211.17 186.17C214.343 188.13 216.84 191 218.66 194.78C220.48 198.56 221.39 203.133 221.39 208.5C221.39 213.867 220.48 218.44 218.66 222.22C216.84 226 214.343 228.893 211.17 230.9C208.043 232.86 204.45 233.84 200.39 233.84ZM200.39 224.25C202.303 224.25 203.96 223.713 205.36 222.64C206.807 221.567 207.927 219.863 208.72 217.53C209.56 215.197 209.98 212.187 209.98 208.5C209.98 204.813 209.56 201.803 208.72 199.47C207.927 197.137 206.807 195.433 205.36 194.36C203.96 193.287 202.303 192.75 200.39 192.75C198.523 192.75 196.867 193.287 195.42 194.36C194.02 195.433 192.9 197.137 192.06 199.47C191.267 201.803 190.87 204.813 190.87 208.5C190.87 212.187 191.267 215.197 192.06 217.53C192.9 219.863 194.02 221.567 195.42 222.64C196.867 223.713 198.523 224.25 200.39 224.25ZM247.9 233.84C243.887 233.84 240.293 232.86 237.12 230.9C233.947 228.893 231.45 226 229.63 222.22C227.81 218.44 226.9 213.867 226.9 208.5C226.9 203.133 227.81 198.56 229.63 194.78C231.45 191 233.947 188.13 237.12 186.17C240.293 184.163 243.887 183.16 247.9 183.16C251.96 183.16 255.553 184.163 258.68 186.17C261.853 188.13 264.35 191 266.17 194.78C267.99 198.56 268.9 203.133 268.9 208.5C268.9 213.867 267.99 218.44 266.17 222.22C264.35 226 261.853 228.893 258.68 230.9C255.553 232.86 251.96 233.84 247.9 233.84ZM247.9 224.25C249.813 224.25 251.47 223.713 252.87 222.64C254.317 221.567 255.437 219.863 256.23 217.53C257.07 215.197 257.49 212.187 257.49 208.5C257.49 204.813 257.07 201.803 256.23 199.47C255.437 197.137 254.317 195.433 252.87 194.36C251.47 193.287 249.813 192.75 247.9 192.75C246.033 192.75 244.377 193.287 242.93 194.36C241.53 195.433 240.41 197.137 239.57 199.47C238.777 201.803 238.38 204.813 238.38 208.5C238.38 212.187 238.777 215.197 239.57 217.53C240.41 219.863 241.53 221.567 242.93 222.64C244.377 223.713 246.033 224.25 247.9 224.25Z" fill="black"/>
<path d="M275.575 213.39L277.885 204.99L278.655 208.14C277.652 208.14 276.823 207.848 276.17 207.265C275.54 206.682 275.225 205.877 275.225 204.85C275.225 203.823 275.552 203.007 276.205 202.4C276.858 201.793 277.663 201.49 278.62 201.49C279.6 201.49 280.405 201.805 281.035 202.435C281.665 203.042 281.98 203.847 281.98 204.85C281.98 205.153 281.957 205.457 281.91 205.76C281.863 206.04 281.77 206.39 281.63 206.81C281.513 207.207 281.315 207.72 281.035 208.35L279.04 213.39H275.575ZM294.581 208.42C292.574 208.42 290.777 207.93 289.191 206.95C287.604 205.947 286.356 204.5 285.446 202.61C284.536 200.72 284.081 198.433 284.081 195.75C284.081 193.067 284.536 190.78 285.446 188.89C286.356 187 287.604 185.565 289.191 184.585C290.777 183.582 292.574 183.08 294.581 183.08C296.611 183.08 298.407 183.582 299.971 184.585C301.557 185.565 302.806 187 303.716 188.89C304.626 190.78 305.081 193.067 305.081 195.75C305.081 198.433 304.626 200.72 303.716 202.61C302.806 204.5 301.557 205.947 299.971 206.95C298.407 207.93 296.611 208.42 294.581 208.42ZM294.581 203.625C295.537 203.625 296.366 203.357 297.066 202.82C297.789 202.283 298.349 201.432 298.746 200.265C299.166 199.098 299.376 197.593 299.376 195.75C299.376 193.907 299.166 192.402 298.746 191.235C298.349 190.068 297.789 189.217 297.066 188.68C296.366 188.143 295.537 187.875 294.581 187.875C293.647 187.875 292.819 188.143 292.096 188.68C291.396 189.217 290.836 190.068 290.416 191.235C290.019 192.402 289.821 193.907 289.821 195.75C289.821 197.593 290.019 199.098 290.416 200.265C290.836 201.432 291.396 202.283 292.096 202.82C292.819 203.357 293.647 203.625 294.581 203.625ZM318.336 208.42C316.329 208.42 314.532 207.93 312.946 206.95C311.359 205.947 310.111 204.5 309.201 202.61C308.291 200.72 307.836 198.433 307.836 195.75C307.836 193.067 308.291 190.78 309.201 188.89C310.111 187 311.359 185.565 312.946 184.585C314.532 183.582 316.329 183.08 318.336 183.08C320.366 183.08 322.162 183.582 323.726 184.585C325.312 185.565 326.561 187 327.471 188.89C328.381 190.78 328.836 193.067 328.836 195.75C328.836 198.433 328.381 200.72 327.471 202.61C326.561 204.5 325.312 205.947 323.726 206.95C322.162 207.93 320.366 208.42 318.336 208.42ZM318.336 203.625C319.292 203.625 320.121 203.357 320.821 202.82C321.544 202.283 322.104 201.432 322.501 200.265C322.921 199.098 323.131 197.593 323.131 195.75C323.131 193.907 322.921 192.402 322.501 191.235C322.104 190.068 321.544 189.217 320.821 188.68C320.121 188.143 319.292 187.875 318.336 187.875C317.402 187.875 316.574 188.143 315.851 188.68C315.151 189.217 314.591 190.068 314.171 191.235C313.774 192.402 313.576 193.907 313.576 195.75C313.576 197.593 313.774 199.098 314.171 200.265C314.591 201.432 315.151 202.283 315.851 202.82C316.574 203.357 317.402 203.625 318.336 203.625Z" fill="black"/>
<path d="M3.32 222V194H15.44C17.9467 194 20.1067 194.413 21.92 195.24C23.7333 196.04 25.1333 197.2 26.12 198.72C27.1067 200.24 27.6 202.053 27.6 204.16C27.6 206.24 27.1067 208.04 26.12 209.56C25.1333 211.053 23.7333 212.2 21.92 213C20.1067 213.8 17.9467 214.2 15.44 214.2H6.92L9.8 211.36V222H3.32ZM21.12 222L14.12 211.84H21.04L28.12 222H21.12ZM9.8 212.08L6.92 209.04H15.08C17.08 209.04 18.5733 208.613 19.56 207.76C20.5467 206.88 21.04 205.68 21.04 204.16C21.04 202.613 20.5467 201.413 19.56 200.56C18.5733 199.707 17.08 199.28 15.08 199.28H6.92L9.8 196.2V212.08ZM40.4941 226.8V189.2H44.4941V226.8H40.4941ZM41.9341 222.48C39.6941 222.48 37.5474 222.187 35.4941 221.6C33.4407 220.987 31.7874 220.2 30.5341 219.24L32.7341 214.36C33.9341 215.213 35.3474 215.92 36.9741 216.48C38.6274 217.013 40.2941 217.28 41.9741 217.28C43.2541 217.28 44.2807 217.16 45.0541 216.92C45.8541 216.653 46.4407 216.293 46.8141 215.84C47.1874 215.387 47.3741 214.867 47.3741 214.28C47.3741 213.533 47.0807 212.947 46.4941 212.52C45.9074 212.067 45.1341 211.707 44.1741 211.44C43.2141 211.147 42.1474 210.88 40.9741 210.64C39.8274 210.373 38.6674 210.053 37.4941 209.68C36.3474 209.307 35.2941 208.827 34.3341 208.24C33.3741 207.653 32.5874 206.88 31.9741 205.92C31.3874 204.96 31.0941 203.733 31.0941 202.24C31.0941 200.64 31.5207 199.187 32.3741 197.88C33.2541 196.547 34.5607 195.493 36.2941 194.72C38.0541 193.92 40.2541 193.52 42.8941 193.52C44.6541 193.52 46.3874 193.733 48.0941 194.16C49.8007 194.56 51.3074 195.173 52.6141 196L50.6141 200.92C49.3074 200.173 48.0007 199.627 46.6941 199.28C45.3874 198.907 44.1074 198.72 42.8541 198.72C41.6007 198.72 40.5741 198.867 39.7741 199.16C38.9741 199.453 38.4007 199.84 38.0541 200.32C37.7074 200.773 37.5341 201.307 37.5341 201.92C37.5341 202.64 37.8274 203.227 38.4141 203.68C39.0007 204.107 39.7741 204.453 40.7341 204.72C41.6941 204.987 42.7474 205.253 43.8941 205.52C45.0674 205.787 46.2274 206.093 47.3741 206.44C48.5474 206.787 49.6141 207.253 50.5741 207.84C51.5341 208.427 52.3074 209.2 52.8941 210.16C53.5074 211.12 53.8141 212.333 53.8141 213.8C53.8141 215.373 53.3741 216.813 52.4941 218.12C51.6141 219.427 50.2941 220.48 48.5341 221.28C46.8007 222.08 44.6007 222.48 41.9341 222.48Z" fill="black"/>
</svg>
